<?xml version="1.0" standalone="no"?>
<!DOCTYPE svg PUBLIC "-//W3C//DTD SVG 20010904//EN"
 "http://www.w3.org/TR/2001/REC-SVG-20010904/DTD/svg10.dtd">
<svg version="1.0" xmlns="http://www.w3.org/2000/svg"
 width="148.000000pt" height="152.000000pt" viewBox="0 0 148.000000 152.000000"
 preserveAspectRatio="xMidYMid meet">

<g transform="translate(0.000000,152.000000) scale(0.100000,-0.100000)"
fill="#000000" stroke="none">
<path d="M635 1445 c-87 -20 -143 -62 -193 -145 -24 -41 -51 -151 -47 -189 2
-14 6 -55 10 -91 4 -36 9 -73 11 -82 4 -11 0 -18 -9 -18 -23 0 -29 -45 -16
-112 11 -56 32 -90 71 -115 7 -4 20 -35 28 -68 18 -71 9 -234 -14 -269 -7 -12
-96 -63 -202 -115 -104 -52 -208 -108 -231 -124 -39 -27 -43 -34 -43 -72 l0
-42 85 -1 c80 -2 85 -1 76 16 -6 11 -6 24 0 33 5 7 9 25 10 39 l0 25 11 -25
c6 -14 18 -40 26 -57 10 -24 21 -33 39 -33 20 0 23 4 18 20 -4 11 -2 20 4 20
6 0 15 -9 21 -20 9 -17 21 -20 75 -20 l65 0 -10 25 c-12 33 3 32 20 0 13 -25
16 -26 114 -23 61 2 101 7 103 14 2 6 -24 21 -58 34 -81 29 -142 89 -163 161
-18 59 -7 88 18 53 14 -18 15 -17 13 11 -2 23 2 30 15 29 10 -1 15 2 12 7 -3
5 -1 9 5 9 5 0 8 14 6 30 -2 17 1 30 6 30 6 0 7 5 4 10 -3 6 0 10 7 10 9 0 9
3 -2 10 -11 7 -12 12 -3 18 8 5 10 24 4 65 -6 47 -5 57 6 53 7 -3 13 -1 13 3
0 5 -6 11 -14 14 -16 6 -41 110 -32 132 3 8 -1 36 -9 62 -8 27 -15 62 -15 80
0 27 4 32 29 38 21 4 31 14 36 33 4 15 10 21 12 15 6 -16 39 -17 48 -3 4 7 16
1 30 -14 17 -18 26 -21 34 -13 20 20 12 44 -19 57 -16 7 -28 16 -25 20 3 5
-18 0 -45 -11 -61 -23 -66 -23 -74 -2 -9 23 9 31 61 25 63 -7 48 13 -16 22
l-49 6 6 48 c2 26 9 52 14 58 5 7 17 29 28 50 11 22 19 31 20 22 0 -14 4 -14
25 6 14 13 47 29 73 36 26 7 51 17 56 21 19 17 -39 9 -83 -11 -50 -23 -64 -21
-26 4 14 9 23 21 19 27 -3 6 4 7 20 3 14 -3 26 -4 26 0 0 3 -14 9 -31 13 -16
5 -30 13 -29 18 1 5 -7 12 -17 16 -12 5 -1 9 36 14 39 6 49 10 37 17 -23 13
-20 28 6 28 25 0 14 15 -17 23 -15 3 -13 5 8 6 16 0 26 5 22 10 -3 5 1 11 9
13 11 2 11 6 2 14 -8 7 -26 7 -61 -1z m15 -19 c0 -2 -7 -7 -16 -10 -8 -3 -12
-2 -9 4 6 10 25 14 25 6z m-227 -581 c4 -8 2 -17 -3 -20 -6 -4 -10 3 -10 14 0
25 6 27 13 6z m2 -75 c3 -5 1 -10 -4 -10 -6 0 -11 5 -11 10 0 6 2 10 4 10 3 0
8 -4 11 -10z"/>
<path d="M930 1365 c0 -3 18 -23 40 -45 22 -22 36 -40 32 -40 -4 0 -13 5 -19
11 -6 6 -17 9 -23 7 -13 -4 92 -78 110 -78 12 0 -24 72 -55 111 -21 27 -54 51
-41 31 9 -15 1 -15 -25 -2 -10 6 -19 8 -19 5z"/>
<path d="M850 1333 c0 -5 16 -24 35 -43 21 -21 35 -28 35 -19 0 7 -10 23 -23
35 -29 27 -47 37 -47 27z"/>
<path d="M758 1320 c14 -17 16 -44 2 -35 -5 3 -17 2 -26 -3 -27 -15 7 -33 44
-23 17 5 34 6 37 3 4 -4 6 2 4 12 -2 11 -20 29 -39 40 -19 10 -29 13 -22 6z"/>
<path d="M788 954 c-10 -3 -18 -10 -18 -15 0 -15 29 -22 43 -10 10 7 17 7 25
-1 6 -6 18 -7 29 -3 10 5 23 7 28 6 7 -2 7 1 0 8 -12 12 -83 22 -107 15z"/>
<path d="M630 756 c0 -20 21 -34 41 -29 30 8 19 38 -14 39 -15 1 -27 -4 -27
-10z"/>
<path d="M738 763 c6 -2 18 -2 25 0 6 3 1 5 -13 5 -14 0 -19 -2 -12 -5z"/>
<path d="M620 668 c-25 -10 -25 -10 -4 -20 15 -7 47 -5 105 5 l84 15 -67 1
c-36 0 -72 3 -80 5 -7 3 -24 0 -38 -6z"/>
<path d="M1200 180 c-1 -8 -2 -19 -1 -23 1 -5 -3 -25 -10 -45 -22 -74 -27
-112 -14 -112 13 0 41 158 32 181 -4 12 -6 11 -7 -1z"/>
<path d="M929 133 c-13 -16 -12 -17 4 -4 16 13 21 21 13 21 -2 0 -10 -8 -17
-17z"/>
<path d="M880 89 c-32 -27 -116 -70 -155 -80 -22 -5 -9 -7 45 -8 85 -1 111 9
91 33 -10 12 -7 20 21 45 37 34 36 41 -2 10z"/>
<path d="M1258 82 c-23 -40 -32 -85 -16 -80 11 4 42 97 35 105 -2 1 -10 -10
-19 -25z"/>
<path d="M1337 83 c-4 -3 -7 -11 -7 -17 0 -6 5 -5 12 2 6 6 9 14 7 17 -3 3 -9
2 -12 -2z"/>
<path d="M1305 24 c-11 -17 -12 -25 -4 -22 6 2 16 14 20 26 11 29 5 28 -16 -4z"/>
<path d="M190 10 c0 -5 5 -10 11 -10 5 0 7 5 4 10 -3 6 -8 10 -11 10 -2 0 -4
-4 -4 -10z"/>
</g>
</svg>
